<?xml version="1.0" encoding="UTF-8"?>
<svg id="Layer_1" data-name="Layer 1" xmlns="http://www.w3.org/2000/svg" viewBox="0 0 1528.29 145.21">
  <defs>
    <style>
      .cls-1 {
        fill: #348f8a;
      }
    </style>
  </defs>
  <path class="cls-1" d="m1449.19,39.45c-2.79,7.5-5.53,14.9-8.28,22.29-8.8,23.7-17.63,47.4-26.37,71.13-.68,1.86-1.47,2.6-3.52,2.53-5.21-.16-10.43-.05-16.01-.05,1.45-3.97,2.75-7.55,4.07-11.11,15.1-40.62,30.21-81.24,45.25-121.88.66-1.79,1.44-2.4,3.34-2.35,5.24.14,10.48.05,16.14.05-3.13,8.47-6.17,16.68-9.28,25.11"/>
  <path class="cls-1" d="m379.73,119.39h-17.2v-14.11c-.15-.02-.31-.04-.46-.06-.21.59-.45,1.17-.62,1.76-2.21,7.78-8.34,12.82-16.38,13.61-5.4.53-10.65.26-15.59-2.19-8.9-4.41-13.61-12.1-14.13-21.53-.66-11.93-.95-24.06.44-35.89,1.86-15.88,15.73-24.74,31.3-21.4,7.46,1.6,12.46,6.04,14.42,13.58.13.48.27.96.44,1.43.04.12.21.2.31.29V14.68h17.48v104.71Zm-17.53-39.43c-.07,0-.14,0-.22,0,0-3.75.11-7.5-.02-11.24-.3-8.55-5.51-13.93-13.6-14.22-9.21-.33-14.96,4.21-15.44,13.17-.45,8.54-.39,17.15.13,25.69.46,7.52,5.83,11.73,13.99,12.05,7.62.3,13.38-3.94,14.43-11.26.67-4.66.51-9.45.72-14.18Z"/>
  <path class="cls-1" d="m661.52,40.53h17.2v13.66c.17.03.34.05.51.08.17-.45.36-.9.5-1.36,2.51-8.37,9.03-13.43,17.85-13.86,15.22-.75,25.51,6.74,27.91,21.9,2.02,12.82,2.07,25.96-.15,38.8-1.82,10.53-7.95,18.23-18.97,20.43-8.99,1.8-17.59.84-23.65-7.22-1.7-2.25-2.57-5.13-3.74-7.54v39.78h-17.44V40.53Zm47.19,39.5c-.08,0-.15,0-.23,0,0-3.91.14-7.83-.03-11.73-.37-8.35-5.43-13.46-13.44-13.79-8.64-.36-14.89,3.98-15.4,11.84-.58,9.03-.55,18.14,0,27.18.44,7.33,6.06,11.62,13.92,11.89,7.76.27,13.38-3.83,14.46-11.2.68-4.66.51-9.45.72-14.18Z"/>
  <path class="cls-1" d="m1250.35,119.47c-6.71,0-13.09.05-19.47-.08-.64-.01-1.44-.97-1.86-1.67-5.74-9.66-11.46-19.33-17.09-29.05-.91-1.57-1.91-2.23-3.74-2.14-3.23.15-6.48.04-10.01.04v32.7h-17.96V14.69h17.72v56.79c4.21,0,8.1.08,11.98-.08.65-.03,1.41-1.03,1.85-1.74,5.69-9.11,11.35-18.22,16.94-27.39.85-1.39,1.76-1.91,3.38-1.88,5.08.1,10.16.03,15.24.04.71,0,1.43.08,2.43.14-.58,1.02-.99,1.82-1.46,2.57-6.92,11.08-13.81,22.19-20.83,33.21-1.11,1.75-1.03,2.97,0,4.68,7.19,11.89,14.28,23.84,21.4,35.78.46.76.85,1.56,1.45,2.66Z"/>
  <path class="cls-1" d="m228.74,80.02c0-5.24-.68-10.59.13-15.71,2.37-15.01,12.91-23.92,28.88-25.11,7.16-.53,14.18.2,20.7,3.42,9.54,4.72,14.91,12.72,15.65,23.09.69,9.68.83,19.54-.17,29.18-1.51,14.59-12.31,24.28-26.99,25.57-8.58.76-16.98.18-24.64-4.4-8.63-5.16-12.87-13.05-13.73-22.8-.39-4.38-.07-8.82-.07-13.24.08,0,.16,0,.24,0Zm17.61-.25s.05,0,.07,0c0,4.08-.12,8.17.03,12.25.14,3.89,1.48,7.47,4.64,9.87,5.39,4.08,11.47,4.22,17.54,1.86,5.83-2.27,7.69-7.32,7.83-13.07.17-6.91.07-13.83.04-20.75-.04-9.7-4.94-14.77-14.64-15.23-9.34-.43-15.22,4.96-15.51,14.32-.11,3.58-.02,7.17-.02,10.75Z"/>
  <path class="cls-1" d="m466.91,84.13h-48.79c.36,4.26.32,8.28,1.11,12.12,1.21,5.82,5.23,9.29,11.03,10.09,3.24.45,6.65.21,9.91-.26,4.33-.62,7.46-3.13,8.91-7.42h17.51c-.9,4.67-2.91,8.62-6.02,11.98-5.39,5.82-12.23,9.09-19.99,9.72-5.41.44-11.09.42-16.35-.74-13.6-3-21.81-12.4-22.85-26.46-.68-9.19-.6-18.52.16-27.7,1.14-13.72,11.17-23.71,24.84-25.85,6.82-1.07,13.63-1.01,20.26,1.15,11.58,3.76,18.47,11.85,20.1,23.76.86,6.28.15,12.78.15,19.62Zm-48.43-11.37h31.51c.12-6.81.04-13.47-6.25-17.37-6.18-3.83-13-3.81-19.13.17-6.15,4-6.4,10.58-6.13,17.2Z"/>
  <path class="cls-1" d="m812.85,60.8c-5.82,0-11.3.03-16.78-.05-.45,0-1.1-.65-1.31-1.14-1.56-3.6-4.46-5.42-8.18-5.64-4.3-.25-8.64-.23-12.95.02-4.36.24-7.21,3.01-7.67,6.87-.57,4.82,1.07,7.89,5.74,9.13,4.56,1.21,9.33,1.6,13.96,2.6,5.02,1.08,10.15,1.99,14.94,3.76,10.95,4.05,14.49,12.78,13.08,23.84-1.31,10.26-7.6,16.97-17.98,19.18-9.94,2.12-20.05,2.36-29.99.05-9.24-2.15-16.17-7.31-18.86-16.93-.37-1.33-.45-2.74-.69-4.29h17.79c1.61,5.99,6.19,7.84,11.76,7.92,4.23.06,8.52.1,12.68-.53,5.09-.76,7.87-4.06,8.08-8.43.21-4.45-2.14-7.79-7.29-9.1-4.74-1.2-9.7-1.5-14.47-2.6-5.32-1.23-10.7-2.48-15.74-4.52-6.71-2.72-9.87-8.4-10.46-15.49-.65-7.84.9-14.95,7.28-20.27,3.69-3.08,8.09-4.71,12.75-5.27,10.37-1.25,20.8-1.99,30.76,2.23,7.99,3.39,12.64,9.41,13.54,18.69Z"/>
  <path class="cls-1" d="m1264.46,98.14h17.93c1.5,5.76,5.77,7.79,11.08,7.91,4.64.1,9.37.17,13.91-.61,5.76-.99,8.5-5.78,7.19-11.1-.73-2.95-2.69-4.96-5.42-5.71-4.15-1.14-8.44-1.77-12.66-2.63-4.88-1-9.88-1.62-14.62-3.09-14-4.35-17.04-15.19-14.11-27.69,1.46-6.21,5.44-10.83,11.42-12.98,12.88-4.63,25.98-4.77,38.82.06,6.66,2.51,11,7.62,12.7,14.71.15.64.26,1.31.33,1.97.05.48.01.97.01,1.66-.82.07-1.53.18-2.25.18-3.58.02-7.16-.04-10.74.03-2.48.05-4.65.3-5.92-2.87-1.01-2.52-3.83-3.8-6.58-3.94-4.64-.22-9.31-.29-13.94.02-4.2.28-6.8,3.11-7.22,7.01-.5,4.62,1.04,7.64,5.45,8.84,4.63,1.26,9.48,1.72,14.2,2.67,4.47.91,9.02,1.67,13.34,3.07,14.85,4.84,16.94,17.56,13.88,28.63-2.37,8.61-8.78,13.25-17.06,15.07-10.01,2.19-20.21,2.41-30.22.05-8.93-2.11-15.73-7.1-18.53-16.34-.45-1.49-.61-3.07-.96-4.89Z"/>
  <path class="cls-1" d="m505.07,18.2h17.96v22.19h30.3v16.13h-30.16c-.06,1.05-.14,1.86-.14,2.66-.01,12.16-.02,24.32,0,36.49,0,4.84,2.17,7.35,7.02,7.52,6.24.22,12.49.1,18.74.13.98,0,1.95,0,3.08,0v16.17c-4.73,0-9.37.08-14.01-.02-4.99-.1-10.05.11-14.95-.66-11.03-1.74-17.69-10.42-17.77-22.54-.08-12.16-.02-24.32-.02-36.49v-3.19h-21.3v-16.13h21.25v-22.26Z"/>
  <path class="cls-1" d="m868.63,18.2c0,6.39,0,12.62,0,18.85q0,3.37,3.37,3.38c8,0,15.99,0,23.99,0,.9,0,1.8,0,2.87,0v16.09h-30.09c-.06,1.08-.14,1.9-.14,2.71-.01,12.16-.02,24.32-.01,36.49,0,4.81,2.2,7.31,7.06,7.49,6.07.21,12.16.1,18.24.12,1.08,0,2.15,0,3.46,0v15.85s-.17.23-.3.23c-8.41-.04-16.83.18-25.22-.21-13.48-.62-21.1-9.99-21.1-23.3,0-12.08,0-24.16,0-36.24,0-.98,0-1.95,0-3.12h-21.23v-16.04h21.19v-22.29h17.92Z"/>
  <path class="cls-1" d="m208.64,92.44c-.52,11.1-5.03,19.57-14.67,24.28-12.38,6.05-25.19,6.03-37.46-.42-9.6-5.05-13.99-13.78-14.45-24.37-.33-7.56-.07-15.16-.07-22.73-.01-15.39,10.4-27.43,25.69-29.62,8.28-1.19,16.45-.88,24.27,2.47,10.33,4.41,17.24,14.98,16.47,25.27h-17.42c-.12-.32-.29-.61-.33-.93-.83-6.06-4.26-9.96-10.16-11.21-6.43-1.36-12.67-.97-17.45,4.46-2.19,2.49-3.04,5.55-3.08,8.78-.09,7.66-.16,15.33,0,22.99.17,7.89,5.5,13.3,13.35,13.68,2.39.12,4.85.03,7.18-.45,5.52-1.13,8.94-4.62,9.96-10.19.29-1.57.84-2.05,2.39-2.03,5.14.08,10.29.03,15.78.03Z"/>
  <path class="cls-1" d="m1158.88,67.38h-17.4c-.13-.23-.32-.42-.35-.64-.76-6.15-4.09-10.24-10.12-11.53-6.62-1.42-13.18-1.14-17.71,4.82-1.61,2.11-2.64,5.14-2.76,7.81-.36,7.98-.34,15.99-.08,23.98.25,7.81,5.57,12.88,13.45,13.29,1.99.1,4.02.13,5.97-.19,6.52-1.07,9.92-4.78,11.42-12.28h17.68c-.06,5.7-1.53,10.96-4.81,15.6-5.29,7.48-12.84,11.17-21.74,12.23-6.41.77-12.78.58-19.04-1.33-12.8-3.9-20.84-14.47-20.95-27.86-.06-7.33,0-14.66-.02-22-.03-15.46,10.27-27.46,25.61-29.68,8.28-1.2,16.45-.9,24.28,2.44,10.33,4.4,17.16,14.75,16.57,25.35Z"/>
  <path class="cls-1" d="m575.01,103.08h27.31v-46.44h-23.71v-16.06h40.95v62.5h24.31v16.25h-68.87v-16.25Z"/>
  <path class="cls-1" d="m1034.3,56.5h-23.67v-15.9h40.9v62.44h24.33v16.28h-68.82v-16.12h27.27v-46.7Z"/>
  <path class="cls-1" d="m940.93,119.39h-17.72V40.62h16.63v13.24c.18.03.36.07.53.1.25-.74.47-1.5.76-2.23,2.42-6.13,6.68-10.28,13.17-11.86,6.31-1.54,12.63-1.36,18.68.97,10.01,3.86,14.69,11.86,15.9,22.06.44,3.67.07,7.43.07,11.32h-18.44c0-1.88.06-3.76,0-5.63-.42-12.14-12.43-18.78-22.98-12.65-5.12,2.98-6.55,7.97-6.57,13.46-.06,15.58-.02,31.16-.02,46.74v3.24Z"/>
  <path class="cls-1" d="m64.42,33.01c0,5.61.04,10.97-.05,16.32-.01.6-.63,1.46-1.17,1.73-14.58,7.24-29.17,14.44-43.79,21.58-1.79.88-3.76,1.36-6.27,2.24,1.85.61,3.21.9,4.44,1.49,7.69,3.64,15.36,7.3,23.01,11.04,7.27,3.55,14.48,7.26,21.77,10.77,1.62.78,2.15,1.75,2.11,3.62-.12,5-.04,10.01-.04,15.4-.99-.44-1.75-.73-2.47-1.09-19.95-10.11-39.88-20.24-59.85-30.3-1.47-.74-2.15-1.5-2.1-3.36.14-5.01-.02-10.04.11-15.05.02-.91.67-2.25,1.37-2.61,20.58-10.55,41.2-21.01,61.82-31.47.21-.11.47-.12,1.12-.29Z"/>
  <path class="cls-1" d="m1463.87,117.19c0-5.21-.04-10.2.05-15.18.01-.56.63-1.36,1.17-1.61,14.58-6.73,29.17-13.43,43.79-20.07,1.79-.81,3.76-1.26,6.27-2.09-1.85-.57-3.21-.84-4.44-1.38-7.69-3.38-15.36-6.79-23.01-10.27-7.27-3.3-14.48-6.75-21.77-10.01-1.62-.72-2.15-1.63-2.11-3.36.12-4.65.04-9.31.04-14.32.99.41,1.75.68,2.47,1.02,19.95,9.4,39.88,18.83,59.85,28.18,1.47.69,2.15,1.4,2.1,3.12-.14,4.66.02,9.33-.11,14-.02.84-.67,2.09-1.37,2.43-20.58,9.82-41.2,19.54-61.82,29.27-.21.1-.47.12-1.12.27Z"/>
  <path class="cls-1" d="m1041.59,6.54c8.4-.08,13.22,5.42,11.41,12.94-.97,4.05-4.2,6.79-9.04,7.36-1.87.22-3.85.14-5.69-.22-5.83-1.13-8.71-4.98-8.35-10.84.32-5.18,4.11-8.8,9.68-9.23.66-.05,1.33,0,2,0Z"/>
  <path class="cls-1" d="m609.68,6.55c8.36-.05,13.2,5.53,11.29,13.02-1.16,4.55-4.52,6.64-8.86,7.24-1.94.27-4.01.17-5.94-.21-5.8-1.13-8.65-5.02-8.25-10.91.34-5.07,4.06-8.65,9.52-9.13.74-.07,1.5,0,2.24,0Z"/>
</svg>