<?xml version="1.0" encoding="UTF-8"?>
<svg id="Layer_1" data-name="Layer 1" xmlns="http://www.w3.org/2000/svg" viewBox="0 0 126.45 512">
  <defs>
    <style>
      .cls-1 {
        fill: #348f8a;
      }
    </style>
  </defs>
  <path class="cls-1" d="m64.13,0c4.04.77,8.09,1.45,12.11,2.31,27.73,5.91,47.27,28.51,49.67,56.61,2.82,32.97-20.19,61.88-52.35,67.44C37.33,132.62,3.36,105.82.32,69.34-2.49,35.61,21.19,7.3,51.94,1.8,55.34,1.19,58.73.6,62.13,0c.67,0,1.33,0,2,0Z"/>
  <path class="cls-1" d="m62.13,512c-4.04-.77-8.08-1.53-12.11-2.3-26.12-5.01-47.68-28.84-49.76-56.62-2.48-32.95,20.24-62.23,52.46-67.36,40.07-6.37,70.93,23.78,73.31,57.43,2.62,37.04-26.18,65.73-57.17,67.58-1.59.1-3.15.83-4.72,1.27h-2Z"/>
  <path class="cls-1" d="m126.45,255.96c-.97,35.74-27.57,63.19-63.41,63.16C27.95,319.1.28,292.38,0,256.28c-.27-34.59,26.05-63.21,62.96-63.4,35.36-.18,62.43,26.86,63.49,63.07Z"/>
</svg>